<?xml version="1.0" standalone="no"?>
<!DOCTYPE svg PUBLIC "-//W3C//DTD SVG 20010904//EN"
 "http://www.w3.org/TR/2001/REC-SVG-20010904/DTD/svg10.dtd">
<svg version="1.0" xmlns="http://www.w3.org/2000/svg"
 width="96.000000pt" height="96.000000pt" viewBox="0 0 96.000000 96.000000"
 preserveAspectRatio="xMidYMid meet">
<metadata>
Created by potrace 1.16, written by Peter Selinger 2001-2019
</metadata>
<g transform="translate(0.000000,96.000000) scale(0.100000,-0.100000)"
fill="#000000" stroke="none">
<path d="M330 940 c-61 -23 -72 -24 -50 -9 13 9 13 10 0 6 -8 -2 -15 -10 -15
-17 0 -7 -6 -15 -14 -18 -9 -3 -11 0 -6 9 5 8 4 11 -1 6 -5 -5 -9 -14 -9 -20
0 -5 -6 -12 -14 -15 -9 -3 -11 0 -6 8 5 9 4 11 -4 6 -6 -4 -9 -11 -7 -15 6 -9
-78 -94 -90 -92 -5 0 -9 -7 -9 -17 0 -9 -5 -16 -12 -15 -8 2 -10 -4 -6 -14 4
-10 2 -14 -5 -9 -6 3 -14 1 -18 -5 -4 -8 -3 -9 4 -5 7 4 12 4 12 -1 0 -12 -16
-34 -26 -36 -11 -3 -16 -61 -16 -187 0 -128 5 -190 16 -189 9 1 26 -21 26 -34
0 -5 -5 -5 -12 -1 -7 4 -8 3 -4 -5 4 -6 12 -8 18 -5 7 5 9 1 5 -9 -4 -10 -2
-16 5 -14 6 1 13 -4 16 -12 3 -10 0 -11 -9 -5 -12 6 -12 5 0 -9 8 -10 16 -15
19 -12 3 2 30 -19 61 -48 120 -110 259 -149 402 -112 33 9 65 13 71 9 6 -4 8
-3 5 3 -4 6 0 14 9 17 22 9 26 8 18 -6 -4 -7 -3 -8 5 -4 6 4 8 12 5 18 -5 7
-1 9 9 5 10 -4 16 -2 14 6 -1 7 7 12 18 12 11 0 20 5 20 10 0 15 15 35 26 35
6 0 7 -6 3 -12 -4 -7 5 -2 19 11 27 25 35 37 17 26 -6 -3 -10 -2 -10 3 0 12
25 33 32 27 3 -3 11 2 19 12 12 14 12 15 0 9 -9 -6 -12 -5 -9 5 3 8 10 13 16
12 7 -2 9 4 5 14 -4 10 -2 14 5 9 6 -3 14 -1 18 5 4 8 3 9 -4 5 -16 -10 -14 4
4 34 8 14 13 17 10 7 -3 -11 -2 -15 4 -12 6 3 7 18 4 32 -4 16 -3 24 3 20 6
-4 9 42 7 126 -3 158 -7 197 -17 190 -4 -2 -12 8 -17 22 -13 34 -13 38 2 29 7
-4 8 -3 4 5 -4 6 -12 8 -18 5 -7 -5 -9 -1 -5 9 4 10 2 16 -6 14 -7 -1 -12 7
-12 18 -1 11 -6 19 -11 18 -11 -2 -95 79 -97 93 -1 5 -7 8 -14 6 -7 -2 -12 3
-11 10 2 6 -4 12 -12 13 -25 1 -61 16 -56 23 5 9 -12 11 -154 17 -99 5 -123 3
-170 -15z m272 -9 c83 -28 117 -49 175 -104 42 -39 53 -57 53 -81 0 -24 3 -27
10 -16 7 11 10 7 10 -17 0 -23 4 -31 14 -27 20 8 46 -67 52 -155 7 -86 -5
-131 -35 -131 -23 0 -37 30 -19 42 10 6 10 8 1 8 -8 0 -12 13 -11 35 1 19 -1
38 -5 41 -12 12 -25 -33 -29 -103 l-5 -73 38 0 c30 0 37 -3 33 -15 -4 -8 -19
-15 -35 -15 -17 0 -33 -8 -42 -20 -13 -19 -15 -19 -28 -4 -7 9 -15 45 -17 80
-2 35 -8 64 -12 64 -5 0 -20 -14 -33 -30 -30 -35 -62 -41 -54 -10 3 11 1 20
-4 20 -5 0 -9 -8 -10 -17 0 -11 -3 -13 -6 -5 -2 6 -21 12 -40 12 -28 0 -34 -3
-29 -16 4 -9 1 -23 -5 -30 -6 -8 -9 -21 -5 -29 4 -11 2 -14 -7 -9 -6 4 -3 -3
7 -15 19 -21 19 -21 1 -15 -13 5 -16 4 -11 -5 4 -6 3 -17 -3 -24 -5 -7 -14
-25 -20 -40 -13 -34 5 -37 20 -4 13 28 76 39 65 12 -3 -9 -2 -13 4 -10 13 8
12 -1 -3 -53 -7 -24 -20 -48 -28 -53 -10 -6 -10 -9 -1 -9 14 0 17 -36 3 -44
-5 -4 -36 -9 -69 -12 -47 -5 -65 -3 -83 10 -13 9 -32 16 -41 16 -17 0 -17 2
-3 30 9 17 13 30 10 30 -4 0 1 7 10 16 9 9 13 19 10 22 -8 8 -32 -28 -46 -70
-12 -37 -31 -49 -44 -28 -3 5 -23 14 -45 20 -42 11 -154 105 -144 121 3 5 -3
9 -13 10 -13 1 -11 3 7 9 l25 8 -28 1 c-24 1 -32 9 -54 57 -54 119 -54 270 1
389 31 69 119 163 187 199 28 16 52 26 55 24 2 -3 -5 -16 -16 -31 -11 -14 -20
-35 -20 -47 0 -11 -7 -35 -16 -52 -10 -20 -13 -39 -8 -57 8 -26 10 -39 13 -78
2 -32 31 -30 31 2 0 14 7 37 16 50 9 14 13 25 10 25 -4 0 0 14 9 30 10 18 23
30 36 30 13 0 18 4 13 12 -12 19 103 2 154 -24 40 -20 47 -28 48 -53 1 -17 6
-40 13 -52 13 -26 15 -53 2 -53 -5 0 -7 9 -4 20 3 12 2 20 -3 19 -5 -1 -17 1
-27 6 -10 4 -32 3 -50 -3 l-32 -10 35 -1 c35 -1 82 -21 50 -21 -10 0 -7 -5 8
-16 16 -11 22 -26 23 -57 l1 -42 7 35 c4 19 12 44 18 55 15 27 18 154 5 186
-6 14 -13 40 -15 58 -6 36 -23 61 -42 61 -7 0 -18 6 -24 13 -12 16 -75 21 -66
6 4 -5 1 -9 -4 -9 -6 0 -11 7 -11 15 0 21 54 19 122 -4z"/>
</g>
</svg>
